<svg width="227" height="43" viewBox="0 0 227 43" fill="none" xmlns="http://www.w3.org/2000/svg">
<path d="M68.5166 22.9834H72.5449C72.4375 24.4092 72.042 25.6738 71.3584 26.7773C70.6748 27.8711 69.7227 28.7305 68.502 29.3555C67.2812 29.9805 65.8018 30.293 64.0635 30.293C62.7256 30.293 61.5195 30.0586 60.4453 29.5898C59.3809 29.1113 58.4678 28.4326 57.7061 27.5537C56.9541 26.665 56.3779 25.6006 55.9775 24.3604C55.5771 23.1104 55.377 21.709 55.377 20.1562V18.5303C55.377 16.9775 55.582 15.5762 55.9922 14.3262C56.4023 13.0762 56.9883 12.0117 57.75 11.1328C58.5215 10.2441 59.4443 9.56055 60.5186 9.08203C61.6025 8.60352 62.8135 8.36426 64.1514 8.36426C65.8896 8.36426 67.3594 8.68652 68.5605 9.33105C69.7617 9.96582 70.6943 10.8398 71.3584 11.9531C72.0225 13.0664 72.4229 14.3457 72.5596 15.791H68.5312C68.4531 14.8926 68.2578 14.1309 67.9453 13.5059C67.6426 12.8809 67.1836 12.4072 66.5684 12.085C65.9629 11.7529 65.1572 11.5869 64.1514 11.5869C63.3701 11.5869 62.6816 11.7334 62.0859 12.0264C61.5 12.3193 61.0117 12.7588 60.6211 13.3447C60.2305 13.9209 59.9375 14.6436 59.7422 15.5127C59.5469 16.3721 59.4492 17.3682 59.4492 18.501V20.1562C59.4492 21.2402 59.5371 22.2119 59.7129 23.0713C59.8887 23.9307 60.1621 24.6582 60.5332 25.2539C60.9043 25.8496 61.3828 26.3037 61.9688 26.6162C62.5547 26.9287 63.2529 27.085 64.0635 27.085C65.0498 27.085 65.8506 26.9287 66.4658 26.6162C67.0908 26.3037 67.5645 25.8447 67.8867 25.2393C68.2188 24.6338 68.4287 23.8818 68.5166 22.9834ZM74.6836 22.2363V21.9287C74.6836 20.7666 74.8496 19.6973 75.1816 18.7207C75.5137 17.7344 75.9971 16.8799 76.6318 16.1572C77.2666 15.4346 78.043 14.873 78.9609 14.4727C79.8789 14.0625 80.9238 13.8574 82.0957 13.8574C83.2871 13.8574 84.3418 14.0625 85.2598 14.4727C86.1875 14.873 86.9688 15.4346 87.6035 16.1572C88.2383 16.8799 88.7217 17.7344 89.0537 18.7207C89.3857 19.6973 89.5518 20.7666 89.5518 21.9287V22.2363C89.5518 23.3887 89.3857 24.458 89.0537 25.4443C88.7217 26.4209 88.2383 27.2754 87.6035 28.0078C86.9688 28.7305 86.1924 29.292 85.2744 29.6924C84.3564 30.0928 83.3066 30.293 82.125 30.293C80.9531 30.293 79.9033 30.0928 78.9756 29.6924C78.0479 29.292 77.2666 28.7305 76.6318 28.0078C75.9971 27.2754 75.5137 26.4209 75.1816 25.4443C74.8496 24.458 74.6836 23.3887 74.6836 22.2363ZM78.5508 21.9287V22.2363C78.5508 22.9297 78.6191 23.5791 78.7559 24.1846C78.8926 24.79 79.1025 25.3223 79.3857 25.7812C79.6689 26.2402 80.0352 26.6016 80.4844 26.8652C80.9434 27.1191 81.4902 27.2461 82.125 27.2461C82.75 27.2461 83.2871 27.1191 83.7363 26.8652C84.1855 26.6016 84.5518 26.2402 84.835 25.7812C85.1279 25.3223 85.3428 24.79 85.4795 24.1846C85.6162 23.5791 85.6846 22.9297 85.6846 22.2363V21.9287C85.6846 21.2451 85.6162 20.6055 85.4795 20.0098C85.3428 19.4043 85.1279 18.8721 84.835 18.4131C84.5518 17.9443 84.1807 17.5781 83.7217 17.3145C83.2725 17.041 82.7305 16.9043 82.0957 16.9043C81.4707 16.9043 80.9336 17.041 80.4844 17.3145C80.0352 17.5781 79.6689 17.9443 79.3857 18.4131C79.1025 18.8721 78.8926 19.4043 78.7559 20.0098C78.6191 20.6055 78.5508 21.2451 78.5508 21.9287ZM97.4326 30H93.5361V12.6855C93.5361 11.4941 93.7656 10.4932 94.2246 9.68262C94.6836 8.8623 95.3379 8.24219 96.1875 7.82227C97.0371 7.40234 98.0381 7.19238 99.1904 7.19238C99.5713 7.19238 99.9326 7.2168 100.274 7.26562C100.626 7.31445 100.973 7.38281 101.314 7.4707L101.241 10.415C101.056 10.3662 100.851 10.332 100.626 10.3125C100.411 10.293 100.172 10.2832 99.9082 10.2832C99.3809 10.2832 98.9316 10.376 98.5605 10.5615C98.1895 10.7471 97.9062 11.0205 97.7109 11.3818C97.5254 11.7334 97.4326 12.168 97.4326 12.6855V30ZM100.641 14.1504V16.9336H91.1484V14.1504H100.641ZM108.097 30H104.2V12.6855C104.2 11.4941 104.43 10.4932 104.889 9.68262C105.348 8.8623 106.002 8.24219 106.852 7.82227C107.701 7.40234 108.702 7.19238 109.854 7.19238C110.235 7.19238 110.597 7.2168 110.938 7.26562C111.29 7.31445 111.637 7.38281 111.979 7.4707L111.905 10.415C111.72 10.3662 111.515 10.332 111.29 10.3125C111.075 10.293 110.836 10.2832 110.572 10.2832C110.045 10.2832 109.596 10.376 109.225 10.5615C108.854 10.7471 108.57 11.0205 108.375 11.3818C108.189 11.7334 108.097 12.168 108.097 12.6855V30ZM111.305 14.1504V16.9336H101.812V14.1504H111.305ZM120.46 30.293C119.259 30.293 118.18 30.0977 117.223 29.707C116.266 29.3164 115.45 28.7744 114.776 28.0811C114.112 27.3779 113.6 26.5625 113.238 25.6348C112.887 24.6973 112.711 23.6914 112.711 22.6172V22.0312C112.711 20.8105 112.887 19.7021 113.238 18.7061C113.59 17.7002 114.088 16.8359 114.732 16.1133C115.377 15.3906 116.148 14.834 117.047 14.4434C117.945 14.0527 118.937 13.8574 120.021 13.8574C121.144 13.8574 122.135 14.0479 122.994 14.4287C123.854 14.7998 124.571 15.3271 125.147 16.0107C125.724 16.6943 126.158 17.5146 126.451 18.4717C126.744 19.4189 126.891 20.4688 126.891 21.6211V23.2471H114.469V20.5811H123.082V20.2881C123.062 19.6729 122.945 19.1113 122.73 18.6035C122.516 18.0859 122.184 17.6758 121.734 17.373C121.285 17.0605 120.704 16.9043 119.991 16.9043C119.415 16.9043 118.912 17.0312 118.482 17.2852C118.062 17.5293 117.711 17.8809 117.428 18.3398C117.154 18.7891 116.949 19.3262 116.812 19.9512C116.676 20.5762 116.607 21.2695 116.607 22.0312V22.6172C116.607 23.2812 116.695 23.8965 116.871 24.4629C117.057 25.0293 117.325 25.5225 117.677 25.9424C118.038 26.3525 118.468 26.6748 118.966 26.9092C119.474 27.1338 120.05 27.2461 120.694 27.2461C121.505 27.2461 122.237 27.0898 122.892 26.7773C123.556 26.4551 124.132 25.9814 124.62 25.3564L126.568 27.3779C126.236 27.8662 125.787 28.335 125.221 28.7842C124.664 29.2334 123.99 29.5996 123.199 29.8828C122.408 30.1562 121.495 30.293 120.46 30.293ZM136.603 30.293C135.401 30.293 134.322 30.0977 133.365 29.707C132.408 29.3164 131.593 28.7744 130.919 28.0811C130.255 27.3779 129.742 26.5625 129.381 25.6348C129.029 24.6973 128.854 23.6914 128.854 22.6172V22.0312C128.854 20.8105 129.029 19.7021 129.381 18.7061C129.732 17.7002 130.23 16.8359 130.875 16.1133C131.52 15.3906 132.291 14.834 133.189 14.4434C134.088 14.0527 135.079 13.8574 136.163 13.8574C137.286 13.8574 138.277 14.0479 139.137 14.4287C139.996 14.7998 140.714 15.3271 141.29 16.0107C141.866 16.6943 142.301 17.5146 142.594 18.4717C142.887 19.4189 143.033 20.4688 143.033 21.6211V23.2471H130.611V20.5811H139.225V20.2881C139.205 19.6729 139.088 19.1113 138.873 18.6035C138.658 18.0859 138.326 17.6758 137.877 17.373C137.428 17.0605 136.847 16.9043 136.134 16.9043C135.558 16.9043 135.055 17.0312 134.625 17.2852C134.205 17.5293 133.854 17.8809 133.57 18.3398C133.297 18.7891 133.092 19.3262 132.955 19.9512C132.818 20.5762 132.75 21.2695 132.75 22.0312V22.6172C132.75 23.2812 132.838 23.8965 133.014 24.4629C133.199 25.0293 133.468 25.5225 133.819 25.9424C134.181 26.3525 134.61 26.6748 135.108 26.9092C135.616 27.1338 136.192 27.2461 136.837 27.2461C137.647 27.2461 138.38 27.0898 139.034 26.7773C139.698 26.4551 140.274 25.9814 140.763 25.3564L142.711 27.3779C142.379 27.8662 141.93 28.335 141.363 28.7842C140.807 29.2334 140.133 29.5996 139.342 29.8828C138.551 30.1562 137.638 30.293 136.603 30.293ZM161.812 8.67188V30H157.799V8.67188H161.812ZM168.434 8.67188V11.8506H151.251V8.67188H168.434ZM173.663 17.3877V30H169.796V14.1504H173.458L173.663 17.3877ZM178.482 14.0479L178.424 17.6514C178.209 17.6123 177.965 17.583 177.691 17.5635C177.428 17.5439 177.179 17.5342 176.944 17.5342C176.349 17.5342 175.826 17.6172 175.377 17.7832C174.928 17.9395 174.552 18.1689 174.249 18.4717C173.956 18.7744 173.731 19.1455 173.575 19.585C173.419 20.0146 173.331 20.5029 173.312 21.0498L172.477 20.9473C172.477 19.9414 172.579 19.0088 172.784 18.1494C172.989 17.29 173.287 16.5381 173.678 15.8936C174.068 15.249 174.557 14.751 175.143 14.3994C175.738 14.0381 176.422 13.8574 177.193 13.8574C177.408 13.8574 177.638 13.877 177.882 13.916C178.136 13.9453 178.336 13.9893 178.482 14.0479ZM188.839 26.6309V19.3213C188.839 18.7842 188.746 18.3203 188.561 17.9297C188.375 17.5391 188.092 17.2363 187.711 17.0215C187.33 16.8066 186.847 16.6992 186.261 16.6992C185.743 16.6992 185.289 16.7871 184.898 16.9629C184.518 17.1387 184.225 17.3877 184.02 17.71C183.814 18.0225 183.712 18.3838 183.712 18.7939H179.83C179.83 18.1396 179.986 17.5195 180.299 16.9336C180.611 16.3379 181.056 15.8105 181.632 15.3516C182.218 14.8828 182.916 14.5166 183.727 14.2529C184.547 13.9893 185.465 13.8574 186.48 13.8574C187.682 13.8574 188.751 14.0625 189.688 14.4727C190.636 14.873 191.378 15.4785 191.915 16.2891C192.462 17.0996 192.735 18.1201 192.735 19.3506V26.2646C192.735 27.0557 192.784 27.7344 192.882 28.3008C192.989 28.8574 193.146 29.3408 193.351 29.751V30H189.41C189.225 29.5996 189.083 29.0918 188.985 28.4766C188.888 27.8516 188.839 27.2363 188.839 26.6309ZM189.381 20.3467L189.41 22.6465H186.964C186.358 22.6465 185.826 22.71 185.367 22.8369C184.908 22.9541 184.532 23.1299 184.239 23.3643C183.946 23.5889 183.727 23.8623 183.58 24.1846C183.434 24.4971 183.36 24.8535 183.36 25.2539C183.36 25.6445 183.448 25.9961 183.624 26.3086C183.81 26.6211 184.073 26.8701 184.415 27.0557C184.767 27.2314 185.177 27.3193 185.646 27.3193C186.329 27.3193 186.925 27.1826 187.433 26.9092C187.94 26.626 188.336 26.2842 188.619 25.8838C188.902 25.4834 189.054 25.1025 189.073 24.7412L190.187 26.4111C190.05 26.8115 189.845 27.2363 189.571 27.6855C189.298 28.1348 188.946 28.5547 188.517 28.9453C188.087 29.3359 187.569 29.6582 186.964 29.9121C186.358 30.166 185.655 30.293 184.854 30.293C183.829 30.293 182.911 30.0879 182.101 29.6777C181.29 29.2676 180.65 28.7061 180.182 27.9932C179.713 27.2803 179.479 26.4697 179.479 25.5615C179.479 24.7217 179.635 23.9795 179.947 23.335C180.26 22.6904 180.724 22.1484 181.339 21.709C181.954 21.2598 182.716 20.9229 183.624 20.6982C184.542 20.4639 185.592 20.3467 186.773 20.3467H189.381ZM202.726 27.2461C203.272 27.2461 203.761 27.1387 204.19 26.9238C204.62 26.709 204.962 26.4062 205.216 26.0156C205.479 25.625 205.621 25.1709 205.641 24.6533H209.288C209.269 25.7275 208.966 26.6895 208.38 27.5391C207.794 28.3887 207.013 29.0625 206.036 29.5605C205.069 30.0488 203.985 30.293 202.784 30.293C201.563 30.293 200.499 30.0879 199.591 29.6777C198.683 29.2676 197.926 28.6963 197.32 27.9639C196.725 27.2314 196.275 26.3818 195.973 25.415C195.68 24.4482 195.533 23.4131 195.533 22.3096V21.8408C195.533 20.7373 195.68 19.7021 195.973 18.7354C196.275 17.7686 196.725 16.9189 197.32 16.1865C197.926 15.4541 198.683 14.8828 199.591 14.4727C200.499 14.0625 201.559 13.8574 202.77 13.8574C204.049 13.8574 205.172 14.1064 206.139 14.6045C207.115 15.1025 207.877 15.8057 208.424 16.7139C208.98 17.6221 209.269 18.6914 209.288 19.9219H205.641C205.621 19.3555 205.494 18.8477 205.26 18.3984C205.025 17.9492 204.693 17.5879 204.264 17.3145C203.834 17.041 203.312 16.9043 202.696 16.9043C202.042 16.9043 201.495 17.041 201.056 17.3145C200.626 17.5879 200.289 17.9639 200.045 18.4424C199.811 18.9111 199.645 19.4385 199.547 20.0244C199.459 20.6006 199.415 21.2061 199.415 21.8408V22.3096C199.415 22.9541 199.459 23.5693 199.547 24.1553C199.645 24.7412 199.811 25.2686 200.045 25.7373C200.289 26.1963 200.626 26.5625 201.056 26.8359C201.495 27.1094 202.052 27.2461 202.726 27.2461ZM218.985 30.293C217.784 30.293 216.705 30.0977 215.748 29.707C214.791 29.3164 213.976 28.7744 213.302 28.0811C212.638 27.3779 212.125 26.5625 211.764 25.6348C211.412 24.6973 211.236 23.6914 211.236 22.6172V22.0312C211.236 20.8105 211.412 19.7021 211.764 18.7061C212.115 17.7002 212.613 16.8359 213.258 16.1133C213.902 15.3906 214.674 14.834 215.572 14.4434C216.471 14.0527 217.462 13.8574 218.546 13.8574C219.669 13.8574 220.66 14.0479 221.52 14.4287C222.379 14.7998 223.097 15.3271 223.673 16.0107C224.249 16.6943 224.684 17.5146 224.977 18.4717C225.27 19.4189 225.416 20.4688 225.416 21.6211V23.2471H212.994V20.5811H221.607V20.2881C221.588 19.6729 221.471 19.1113 221.256 18.6035C221.041 18.0859 220.709 17.6758 220.26 17.373C219.811 17.0605 219.229 16.9043 218.517 16.9043C217.94 16.9043 217.438 17.0312 217.008 17.2852C216.588 17.5293 216.236 17.8809 215.953 18.3398C215.68 18.7891 215.475 19.3262 215.338 19.9512C215.201 20.5762 215.133 21.2695 215.133 22.0312V22.6172C215.133 23.2812 215.221 23.8965 215.396 24.4629C215.582 25.0293 215.851 25.5225 216.202 25.9424C216.563 26.3525 216.993 26.6748 217.491 26.9092C217.999 27.1338 218.575 27.2461 219.22 27.2461C220.03 27.2461 220.763 27.0898 221.417 26.7773C222.081 26.4551 222.657 25.9814 223.146 25.3564L225.094 27.3779C224.762 27.8662 224.312 28.335 223.746 28.7842C223.189 29.2334 222.516 29.5996 221.725 29.8828C220.934 30.1562 220.021 30.293 218.985 30.293Z" fill="#535353"/>
<path d="M0 5C0 2.23858 2.23858 0 5 0H42V43H5C2.23858 43 0 40.7614 0 38V5Z" fill="url(#paint0_linear_72_1064)"/>
<rect x="12" y="13" width="18" height="17" fill="white"/>
<defs>
<linearGradient id="paint0_linear_72_1064" x1="-5.8652e-09" y1="21" x2="65" y2="21" gradientUnits="userSpaceOnUse">
<stop stop-color="#FFC42A"/>
<stop offset="1" stop-color="#F74316"/>
</linearGradient>
</defs>
</svg>
