<svg width="30" height="30" viewBox="0 0 30 30" fill="none" xmlns="http://www.w3.org/2000/svg">
<path d="M15 17.7445C14.7806 17.7445 14.5651 17.6868 14.375 17.5773L3.12499 11.0807C2.52701 10.7353 2.32223 9.97052 2.66763 9.37253C2.77733 9.1826 2.93507 9.02487 3.12499 8.91517L14.375 2.42347C14.762 2.20129 15.2379 2.20129 15.625 2.42347L26.875 8.91517C27.473 9.26057 27.6778 10.0253 27.3324 10.6233C27.2227 10.8133 27.0649 10.971 26.875 11.0807L15.625 17.5773C15.4349 17.6868 15.2194 17.7445 15 17.7445Z" fill="#CDCDCD" fill-opacity="0.4"/>
<path d="M26.875 13.9148L24.4199 12.498L15.625 17.5769C15.2382 17.7998 14.7618 17.7998 14.375 17.5769L5.58013 12.498L3.12499 13.9148C2.52701 14.2602 2.32223 15.0249 2.66763 15.6229C2.77733 15.8128 2.93507 15.9706 3.12499 16.0803L14.375 22.5769C14.7618 22.7998 15.2382 22.7998 15.625 22.5769L26.875 16.0803C27.473 15.7349 27.6778 14.9701 27.3324 14.3721C27.2227 14.1822 27.0649 14.0245 26.875 13.9148Z" fill="#CDCDCD" fill-opacity="0.8"/>
<path d="M26.875 18.9148L24.4199 17.498L15.625 22.5769C15.2382 22.7998 14.7618 22.7998 14.375 22.5769L5.58013 17.498L3.12499 18.9148C2.52701 19.2602 2.32223 20.0249 2.66763 20.6229C2.77733 20.8128 2.93507 20.9706 3.12499 21.0803L14.375 27.5769C14.7618 27.7998 15.2382 27.7998 15.625 27.5769L26.875 21.0803C27.473 20.7349 27.6778 19.9701 27.3324 19.3721C27.2227 19.1822 27.0649 19.0245 26.875 18.9148Z" fill="#CDCDCD"/>
</svg>
