<svg width="38" height="106" viewBox="0 0 38 106" fill="none" xmlns="http://www.w3.org/2000/svg">
<line x1="18.75" y1="42.75" x2="18.75" y2="64.25" stroke="#E3E3E3" stroke-width="1.5" stroke-linecap="round" stroke-dasharray="4 4"/>
<circle cx="19" cy="19" r="19" fill="#E8F9EE"/>
<circle cx="19" cy="19" r="7" fill="#0EBC93"/>
<circle cx="19" cy="87" r="19" fill="#E5E5FE"/>
<path d="M27.62 83.45C26.57 78.83 22.54 76.75 19 76.75C19 76.75 19 76.75 18.99 76.75C15.46 76.75 11.42 78.82 10.37 83.44C9.2 88.6 12.36 92.97 15.22 95.72C16.28 96.74 17.64 97.25 19 97.25C20.36 97.25 21.72 96.74 22.77 95.72C25.63 92.97 28.79 88.61 27.62 83.45ZM19 88.46C17.26 88.46 15.85 87.05 15.85 85.31C15.85 83.57 17.26 82.16 19 82.16C20.74 82.16 22.15 83.57 22.15 85.31C22.15 87.05 20.74 88.46 19 88.46Z" fill="#5251FA"/>
</svg>
