<svg xmlns="http://www.w3.org/2000/svg" viewBox="0 0 500 500"><g id="freepik--background-simple--inject-35"><path d="M332.51,63.83c-21.82,12.48-37.21,33.47-55.86,50.32a179.7,179.7,0,0,1-81.92,42c-25,5.41-51.12,5.49-75.21,14-47,16.49-79.19,65.43-80,115.19s27.5,98,69.11,125.28a165.64,165.64,0,0,0,46,20.95c30.6,8.61,63.05,8.23,94.67,4.94,54.62-5.69,111.88-36.71,146.31-80.44a313.74,313.74,0,0,0,38.64-63.45,316.45,316.45,0,0,0,28.52-118.15c1.45-35,0-73.8-27.77-99.31S365.06,45.2,332.51,63.83Z" style="fill:#B81212"></path><path d="M332.51,63.83c-21.82,12.48-37.21,33.47-55.86,50.32a179.7,179.7,0,0,1-81.92,42c-25,5.41-51.12,5.49-75.21,14-47,16.49-79.19,65.43-80,115.19s27.5,98,69.11,125.28a165.64,165.64,0,0,0,46,20.95c30.6,8.61,63.05,8.23,94.67,4.94,54.62-5.69,111.88-36.71,146.31-80.44a313.74,313.74,0,0,0,38.64-63.45,316.45,316.45,0,0,0,28.52-118.15c1.45-35,0-73.8-27.77-99.31S365.06,45.2,332.51,63.83Z" style="fill:#fff;opacity:0.7000000000000001"></path></g><g id="freepik--Window--inject-35"><rect x="77.18" y="68.3" width="228.73" height="136.09" rx="8.95" style="fill:#fff"></rect><path d="M305.91,77.25v3.54H77.18V77.25a9,9,0,0,1,8.95-9H297A8.94,8.94,0,0,1,305.91,77.25Z" style="fill:#B81212"></path><rect x="77.18" y="68.3" width="228.73" height="136.09" rx="8.95" style="fill:none;stroke:#263238;stroke-linecap:round;stroke-linejoin:round"></rect><path d="M305.91,77.25v3.54H77.18V77.25a9,9,0,0,1,8.95-9H297A8.94,8.94,0,0,1,305.91,77.25Z" style="fill:none;stroke:#263238;stroke-linecap:round;stroke-linejoin:round"></path><path d="M102.87,74.54a2.29,2.29,0,1,1-2.29-2.28A2.29,2.29,0,0,1,102.87,74.54Z" style="fill:#263238"></path><path d="M114.82,74.54a2.29,2.29,0,1,1-2.29-2.28A2.29,2.29,0,0,1,114.82,74.54Z" style="fill:#263238"></path><circle cx="124.48" cy="74.54" r="2.29" style="fill:#263238"></circle><rect x="90.74" y="90.7" width="72.05" height="38.49" rx="3.69" style="fill:none;stroke:#263238;stroke-linecap:round;stroke-linejoin:round"></rect><line x1="94.98" y1="124.35" x2="157.45" y2="124.35" style="fill:none;stroke:#263238;stroke-linecap:round;stroke-linejoin:round"></line><rect x="99.62" y="117" width="7.25" height="7.25" style="fill:#B81212;stroke:#263238;stroke-miterlimit:10"></rect><rect x="110.23" y="107.47" width="7.25" height="16.88" style="fill:#B81212;stroke:#263238;stroke-miterlimit:10"></rect><rect x="122.18" y="110.37" width="7.25" height="14.15" style="fill:#B81212;stroke:#263238;stroke-miterlimit:10"></rect><rect x="134.74" y="96.28" width="7.25" height="27.75" style="fill:#B81212;stroke:#263238;stroke-miterlimit:10"></rect><rect x="147.29" y="96.5" width="7.25" height="27.75" style="fill:#B81212;stroke:#263238;stroke-miterlimit:10"></rect><circle cx="252.12" cy="110.91" r="20.27" style="fill:#B81212;stroke:#263238;stroke-miterlimit:10"></circle><path d="M253.78,123.55v2.08h-3.4v-2.08a6.18,6.18,0,0,1-4.72-6.3v-.94l3.85-.42v1c0,1.93,1,3.1,2.57,3.1a2.37,2.37,0,0,0,2.56-2.53c0-1.85-1.73-3.44-3.77-5.13-2.42-2-4.83-4.38-4.83-7.74s1.58-5.63,4.34-6.31V96.19h3.4v2.07c2.79.65,4.41,3,4.41,6.35v.68l-3.85.41V105c0-2-.79-3.1-2.19-3.1s-2.19.87-2.19,2.53c0,1.85,1.78,3.4,3.78,5.13,2.38,2,4.83,4.38,4.83,7.74A6.15,6.15,0,0,1,253.78,123.55Z" style="fill:#263238"></path><line x1="89.06" y1="148.85" x2="94.98" y2="148.85" style="fill:none;stroke:#263238;stroke-linecap:round;stroke-linejoin:round"></line><line x1="89.06" y1="160.29" x2="94.98" y2="160.29" style="fill:none;stroke:#263238;stroke-linecap:round;stroke-linejoin:round"></line><line x1="89.06" y1="171.74" x2="94.98" y2="171.74" style="fill:none;stroke:#263238;stroke-linecap:round;stroke-linejoin:round"></line><line x1="89.06" y1="183.18" x2="94.98" y2="183.18" style="fill:none;stroke:#263238;stroke-linecap:round;stroke-linejoin:round"></line><line x1="108.03" y1="191.82" x2="108.03" y2="187.22" style="fill:none;stroke:#263238;stroke-linecap:round;stroke-linejoin:round"></line><line x1="117.41" y1="191.82" x2="117.41" y2="187.22" style="fill:none;stroke:#263238;stroke-linecap:round;stroke-linejoin:round"></line><line x1="126.79" y1="191.82" x2="126.79" y2="187.22" style="fill:none;stroke:#263238;stroke-linecap:round;stroke-linejoin:round"></line><line x1="136.18" y1="191.82" x2="136.18" y2="187.22" style="fill:none;stroke:#263238;stroke-linecap:round;stroke-linejoin:round"></line><line x1="145.56" y1="191.82" x2="145.56" y2="187.22" style="fill:none;stroke:#263238;stroke-linecap:round;stroke-linejoin:round"></line><line x1="154.94" y1="191.82" x2="154.94" y2="187.22" style="fill:none;stroke:#263238;stroke-linecap:round;stroke-linejoin:round"></line><line x1="164.32" y1="191.82" x2="164.32" y2="187.22" style="fill:none;stroke:#263238;stroke-linecap:round;stroke-linejoin:round"></line><line x1="173.71" y1="191.82" x2="173.71" y2="187.22" style="fill:none;stroke:#263238;stroke-linecap:round;stroke-linejoin:round"></line><line x1="183.09" y1="191.82" x2="183.09" y2="187.22" style="fill:none;stroke:#263238;stroke-linecap:round;stroke-linejoin:round"></line><line x1="192.47" y1="191.82" x2="192.47" y2="187.22" style="fill:none;stroke:#263238;stroke-linecap:round;stroke-linejoin:round"></line><line x1="201.85" y1="191.82" x2="201.85" y2="187.22" style="fill:none;stroke:#263238;stroke-linecap:round;stroke-linejoin:round"></line><line x1="211.24" y1="191.82" x2="211.24" y2="187.22" style="fill:none;stroke:#263238;stroke-linecap:round;stroke-linejoin:round"></line><line x1="220.62" y1="191.82" x2="220.62" y2="187.22" style="fill:none;stroke:#263238;stroke-linecap:round;stroke-linejoin:round"></line><line x1="230" y1="191.82" x2="230" y2="187.22" style="fill:none;stroke:#263238;stroke-linecap:round;stroke-linejoin:round"></line><line x1="239.38" y1="191.82" x2="239.38" y2="187.22" style="fill:none;stroke:#263238;stroke-linecap:round;stroke-linejoin:round"></line><line x1="248.41" y1="191.82" x2="248.41" y2="187.22" style="fill:none;stroke:#263238;stroke-linecap:round;stroke-linejoin:round"></line><line x1="257.44" y1="191.82" x2="257.44" y2="187.22" style="fill:none;stroke:#263238;stroke-linecap:round;stroke-linejoin:round"></line><line x1="266.46" y1="191.82" x2="266.46" y2="187.22" style="fill:none;stroke:#263238;stroke-linecap:round;stroke-linejoin:round"></line><path d="M290.34,141.85v44.46c0,3.05-3.1,5.51-6.92,5.51H96a7.42,7.42,0,0,1-6-2.71,4.73,4.73,0,0,1-1-2.8V141.85c0-3,3.1-5.51,6.92-5.51H283.42C287.24,136.34,290.34,138.8,290.34,141.85Z" style="fill:none;stroke:#B81212;stroke-linecap:round;stroke-linejoin:round"></path><path d="M233.3,55.74l-59.83,80.6-22.88,30.82-25-15.92L95,191.82h-.44a5.51,5.51,0,0,1-4.75-2.71l34.37-45.61,25,15.89,17.11-23,62.39-84Z" style="fill:#263238"></path><polygon points="218.12 56.76 240.11 43.43 234.03 66.49 230.15 55.82 218.12 56.76" style="fill:#263238"></polygon></g><g id="freepik--Coins--inject-35"><path d="M327.3,175.31a36.31,36.31,0,0,1-28.13,35.37l-.11,0c-.95.21-1.9.4-2.88.54a37.08,37.08,0,0,1-5.19.37A36.31,36.31,0,0,1,289.65,139c.33,0,.68,0,1,0a1.72,1.72,0,0,1,.32,0,2.3,2.3,0,0,1,.37,0,35.75,35.75,0,0,1,14.22,3.05A36.31,36.31,0,0,1,327.3,175.31Z" style="fill:#B81212"></path><path d="M305.58,142.06c-41.93-2.18-42.13,44.37-42.13,44.37s-6.4-15.19,4.05-32c5.84-9.41,16-13.56,23.86-15.4A35.75,35.75,0,0,1,305.58,142.06Z" style="fill:#fff;opacity:0.4"></path><path d="M327.3,175.31a36.31,36.31,0,0,1-28.24,35.4,35.71,35.71,0,0,1-8.07.91A36.31,36.31,0,0,1,289.65,139c.44,0,.89,0,1.34,0A36.32,36.32,0,0,1,327.3,175.31Z" style="fill:none;stroke:#263238;stroke-linecap:round;stroke-linejoin:round"></path><path d="M327.3,175.31a36.31,36.31,0,0,1-28.24,35.4c-.44,0-.89,0-1.34,0A36.32,36.32,0,0,1,289.65,139c.44,0,.89,0,1.34,0A36.32,36.32,0,0,1,327.3,175.31Z" style="fill:none;stroke:#263238;stroke-linecap:round;stroke-linejoin:round"></path><path d="M303.5,198l.94,3.84-6.28,1.53-.94-3.83c-5.62,0-10.13-3.65-11.57-9.51l-.43-1.74,6.93-2.51.44,1.81c.87,3.56,3.22,5.27,6.15,4.55a4.5,4.5,0,0,0,3.59-5.83c-.84-3.42-4.76-5.56-9.3-7.77-5.37-2.6-10.91-5.9-12.43-12.11-1.48-6.06.38-11.11,5.17-13.61l-.94-3.84,6.27-1.53.94,3.83c5.45-.08,9.51,3.51,11,9.71l.31,1.26-6.92,2.51-.35-1.39c-.92-3.77-2.86-5.36-5.44-4.73s-3.65,2.6-2.9,5.66c.84,3.42,4.81,5.48,9.3,7.78,5.31,2.69,10.91,5.9,12.43,12.1C311,190.15,308.56,195.47,303.5,198Z" style="fill:none;stroke:#263238;stroke-miterlimit:10"></path><path d="M303.5,198l.94,3.84-6.28,1.53-.94-3.83c-5.62,0-10.13-3.65-11.57-9.51l-.43-1.74,6.93-2.51.44,1.81c.87,3.56,3.22,5.27,6.15,4.55a4.5,4.5,0,0,0,3.59-5.83c-.84-3.42-4.76-5.56-9.3-7.77-5.37-2.6-10.91-5.9-12.43-12.11-1.48-6.06.38-11.11,5.17-13.61l-.94-3.84,6.27-1.53.94,3.83c5.45-.08,9.51,3.51,11,9.71l.31,1.26-6.92,2.51-.35-1.39c-.92-3.77-2.86-5.36-5.44-4.73s-3.65,2.6-2.9,5.66c.84,3.42,4.81,5.48,9.3,7.78,5.31,2.69,10.91,5.9,12.43,12.1C311,190.15,308.56,195.47,303.5,198Z" style="opacity:0.30000000000000004"></path><line x1="272.43" y1="206.53" x2="280.1" y2="206.18" style="fill:none;stroke:#263238;stroke-linecap:round;stroke-linejoin:round"></line><line x1="268.74" y1="203.98" x2="275.43" y2="203.41" style="fill:none;stroke:#263238;stroke-linecap:round;stroke-linejoin:round"></line><line x1="265.74" y1="201.29" x2="272.43" y2="200.72" style="fill:none;stroke:#263238;stroke-linecap:round;stroke-linejoin:round"></line><line x1="264.82" y1="150.13" x2="270.55" y2="150.13" style="fill:none;stroke:#263238;stroke-linecap:round;stroke-linejoin:round"></line><line x1="267.65" y1="147.49" x2="273.36" y2="147.23" style="fill:none;stroke:#263238;stroke-linecap:round;stroke-linejoin:round"></line><line x1="271.23" y1="144.84" x2="277.25" y2="144.27" style="fill:none;stroke:#263238;stroke-linecap:round;stroke-linejoin:round"></line><path d="M299.17,210.68l-.11,0a35.71,35.71,0,0,1-8.07.91A36.31,36.31,0,0,1,289.65,139c.33,0,.68,0,1,0-8.85,2.79-23.7,9.92-27.67,24.79C257.37,184.92,270,208.91,299.17,210.68Z" style="opacity:0.30000000000000004"></path><path d="M327.3,175.31a36.31,36.31,0,0,1-28.13,35.37l-.11,0c-.95.21-1.9.4-2.88.54l9.4-69.19A36.31,36.31,0,0,1,327.3,175.31Z" style="opacity:0.1"></path><path d="M347.9,118.15a22,22,0,0,1-26.31,7.64l-.13-.06a22.63,22.63,0,0,1-2-1,19.63,19.63,0,0,1-2.12-1.32,22,22,0,0,1,24.19-36.63l.49.31c.23.13.45.29.68.45s.67.49,1,.75A22,22,0,0,1,347.9,118.15Z" style="fill:#B81212"></path><path d="M314.76,118.45s-3.59-10.57,1.18-18.35c6-9.75,15.19-14.2,27.7-11.8,0,0-6.78-4.58-18.13-1.33S308.07,105.84,314.76,118.45Z" style="fill:#fff;opacity:0.4"></path><path d="M347.9,118.16a22,22,0,0,1-26.31,7.62,21.55,21.55,0,0,1-4.3-2.36A22,22,0,0,1,342,87.1c.22.13.45.28.67.44A22,22,0,0,1,347.9,118.16Z" style="fill:none;stroke:#263238;stroke-linecap:round;stroke-linejoin:round"></path><path d="M347.9,118.16a22,22,0,0,1-26.31,7.62l-.67-.44A22,22,0,0,1,342,87.1c.22.13.45.28.67.44A22,22,0,0,1,347.9,118.16Z" style="fill:none;stroke:#263238;stroke-linecap:round;stroke-linejoin:round"></path><path d="M328.21,121.08l-.87,2.22-3.64-1.43.87-2.23a7.12,7.12,0,0,1-2.4-8.73l.4-1,4.3,1.17-.41,1.06c-.81,2.06-.26,3.72,1.44,4.39a2.72,2.72,0,0,0,3.81-1.63c.78-2-.41-4.41-1.88-7.08-1.74-3.16-3.32-6.72-1.91-10.32s4.07-5.36,7.3-4.92l.88-2.22,3.63,1.43L338.86,94c2.72,1.86,3.47,5,2.06,8.65l-.29.72-4.3-1.17.32-.81c.86-2.18.46-3.65-1-4.24s-2.71,0-3.41,1.79c-.78,2,.47,4.38,1.88,7.08,1.69,3.19,3.33,6.73,1.92,10.32A7.09,7.09,0,0,1,328.21,121.08Z" style="fill:none;stroke:#263238;stroke-miterlimit:10"></path><path d="M328.21,121.08l-.87,2.22-3.64-1.43.87-2.23a7.12,7.12,0,0,1-2.4-8.73l.4-1,4.3,1.17-.41,1.06c-.81,2.06-.26,3.72,1.44,4.39a2.72,2.72,0,0,0,3.81-1.63c.78-2-.41-4.41-1.88-7.08-1.74-3.16-3.32-6.72-1.91-10.32s4.07-5.36,7.3-4.92l.88-2.22,3.63,1.43L338.86,94c2.72,1.86,3.47,5,2.06,8.65l-.29.72-4.3-1.17.32-.81c.86-2.18.46-3.65-1-4.24s-2.71,0-3.41,1.79c-.78,2,.47,4.38,1.88,7.08,1.69,3.19,3.33,6.73,1.92,10.32A7.09,7.09,0,0,1,328.21,121.08Z" style="opacity:0.30000000000000004"></path><path d="M341.48,86.79c-6-1.07-13.6-1.66-17.7,1-7.53,4.83-12.22,10.92-12.15,20.79s9.29,16.79,9.29,16.79l.54.39a21.66,21.66,0,0,1-4.17-2.31,22,22,0,0,1,24.19-36.63Z" style="opacity:0.30000000000000004"></path><path d="M347.9,118.15a22,22,0,0,1-26.31,7.64l-.13-.06a22.63,22.63,0,0,1-2-1L343.64,88.3A22,22,0,0,1,347.9,118.15Z" style="opacity:0.1"></path></g></svg>